<svg fill="none" xmlns="http://www.w3.org/2000/svg" viewBox="0 0 16 18"><path fill-rule="evenodd" clip-rule="evenodd" d="M9.298.776h2.29a4.259 4.259 0 0 0 1.909 2.788v.002a4.397 4.397 0 0 0 2.37.688V7.31a7.556 7.556 0 0 1-4.352-1.368v6.213c0 3.102-2.583 5.626-5.758 5.626a5.815 5.815 0 0 1-3.3-1.02v-.001C.971 15.741 0 14.057 0 12.154c0-3.102 2.583-5.627 5.757-5.627.264 0 .522.022.776.055v3.122a2.646 2.646 0 0 0-.776-.12c-1.45 0-2.63 1.154-2.63 2.57 0 .987.574 1.845 1.41 2.275.365.188.78.295 1.22.295 1.417 0 2.572-1.1 2.625-2.473L8.387 0h3.127c0 .265.027.524.074.776h-2.29Z" fill="#fff"/></svg>