<svg width="48" height="48" viewBox="0 0 48 48" fill="none" xmlns="http://www.w3.org/2000/svg">
<path fill-rule="evenodd" clip-rule="evenodd" d="M12.0004 3.59998C6.69846 3.59998 2.40039 7.89804 2.40039 13.2V34.8C2.40039 40.1019 6.69846 44.4 12.0004 44.4H36.0004C41.3023 44.4 45.6004 40.1019 45.6004 34.8V13.2C45.6004 7.89804 41.3023 3.59998 36.0004 3.59998H12.0004ZM37.4996 16.7353C37.4996 19.7177 35.082 22.1353 32.0996 22.1353C29.1173 22.1353 26.6996 19.7177 26.6996 16.7353C26.6996 13.753 29.1173 11.3353 32.0996 11.3353C35.082 11.3353 37.4996 13.753 37.4996 16.7353ZM15.9815 22.3404C16.9263 20.8708 19.0745 20.8708 20.0192 22.3404L26.4232 32.3022C27.45 33.8994 26.3032 36 24.4044 36H11.5964C9.69756 36 8.55074 33.8994 9.57753 32.3022L15.9815 22.3404Z" fill="white"/>
</svg>
